<?xml version="1.0" standalone="no"?>
<!DOCTYPE svg PUBLIC "-//W3C//DTD SVG 20010904//EN"
 "http://www.w3.org/TR/2001/REC-SVG-20010904/DTD/svg10.dtd">
<svg version="1.0" xmlns="http://www.w3.org/2000/svg"
 width="260.000000pt" height="131.000000pt" viewBox="0 0 260.000000 131.000000"
 preserveAspectRatio="xMidYMid meet">
<metadata>
Created by potrace 1.10, written by Peter Selinger 2001-2011
</metadata>
<g transform="translate(0.000000,131.000000) scale(0.100000,-0.100000)"
fill="#000000" stroke="none">
<path d="M730 685 l0 -205 208 2 207 2 -200 6 -200 5 0 190 0 190 455 0 455 0
6 -30 c6 -29 7 -29 8 8 l1 37 -470 0 -470 0 0 -205z"/>
<path d="M806 780 c3 -30 8 -98 12 -150 5 -75 10 -95 22 -95 12 0 16 19 18 95
2 52 7 99 12 104 6 6 9 30 9 56 l-2 45 -7 -40 -7 -40 -2 38 c-1 30 -5 37 -21
37 -16 0 -20 -7 -21 -37 l-2 -38 -8 40 c-6 33 -7 31 -3 -15z m52 -46 c-9 -9
-21 -13 -27 -10 -20 13 -11 26 16 26 25 0 26 -1 11 -16z"/>
<path d="M1064 803 c-31 -47 -16 -265 19 -271 16 -3 17 9 17 147 0 83 -4 151
-9 151 -5 0 -17 -12 -27 -27z m24 -125 c-1 -73 -3 -113 -5 -88 -3 25 -8 49
-14 54 -20 21 -6 166 16 166 3 0 4 -60 3 -132z"/>
<path d="M1130 765 c0 -58 2 -65 20 -65 13 0 20 7 20 20 0 13 7 20 20 20 11 0
20 7 20 15 0 8 -9 15 -20 15 -11 0 -20 5 -20 10 0 6 11 10 24 10 23 0 41 22
29 34 -4 3 -26 6 -50 6 l-43 0 0 -65z"/>
<path d="M1252 818 c-7 -7 -12 -34 -12 -60 0 -41 3 -50 23 -57 21 -8 62 -6 79
5 4 3 8 29 8 59 0 39 -4 54 -16 59 -26 10 -69 7 -82 -6z m58 -53 c0 -24 -5
-35 -15 -35 -10 0 -15 11 -15 35 0 24 5 35 15 35 10 0 15 -11 15 -35z"/>
<path d="M1382 818 c-14 -14 -16 -86 -3 -107 9 -14 72 -18 91 -6 6 4 10 30 10
60 0 39 -4 54 -16 59 -26 10 -69 7 -82 -6z m58 -53 c0 -24 -5 -35 -15 -35 -15
0 -22 50 -8 63 15 15 23 5 23 -28z"/>
<path d="M1510 765 l0 -65 49 0 c55 0 61 7 61 70 0 45 -18 60 -74 60 l-36 0 0
-65z m70 -5 c0 -20 -5 -30 -15 -30 -10 0 -15 10 -15 30 0 20 5 30 15 30 10 0
15 -10 15 -30z"/>
<path d="M905 781 c-3 -6 9 -8 30 -4 23 4 43 0 59 -11 28 -18 36 -20 36 -8 0
24 -111 44 -125 23z"/>
<path d="M892 737 c-69 -74 32 -179 112 -116 35 27 36 86 3 117 -32 30 -87 29
-115 -1z m105 -9 c31 -29 30 -71 -3 -97 -35 -27 -59 -26 -89 4 -31 30 -32 62
-3 92 27 29 65 29 95 1z"/>
<path d="M912 718 c-7 -7 -12 -21 -11 -32 0 -20 1 -20 9 2 5 12 20 27 32 32
22 8 22 9 3 9 -12 1 -26 -4 -33 -11z"/>
<path d="M1142 648 c-7 -7 -12 -33 -12 -59 0 -51 8 -59 61 -59 22 0 29 5 29
20 0 17 -4 19 -26 14 -24 -6 -25 -5 -22 27 2 29 7 34 26 32 16 -2 22 2 22 17
0 16 -7 20 -33 20 -18 0 -38 -5 -45 -12z"/>
<path d="M1254 625 c-21 -52 -19 -95 6 -95 11 0 20 7 20 15 0 8 7 15 15 15 8
0 15 -7 15 -15 0 -8 9 -15 20 -15 16 0 20 7 20 34 0 18 -5 47 -11 65 -9 25
-16 31 -40 31 -25 0 -33 -6 -45 -35z"/>
<path d="M1375 595 c0 -61 1 -65 23 -65 15 0 22 6 22 20 0 11 7 20 15 20 8 0
15 -9 15 -20 0 -13 7 -20 20 -20 15 0 20 7 20 29 0 17 -5 33 -10 36 -6 4 -8
11 -5 16 4 5 3 18 0 29 -5 16 -15 20 -53 20 l-47 0 0 -65z"/>
<path d="M1500 640 c0 -13 5 -18 15 -14 12 5 15 -4 15 -45 0 -44 3 -51 20 -51
17 0 20 7 20 50 0 43 3 50 17 48 10 -2 19 4 21 15 3 15 -4 17 -52 17 -49 0
-56 -2 -56 -20z"/>
<path d="M1658 563 l-3 -68 -45 -6 -45 -6 53 -1 52 -2 0 75 c0 41 -2 75 -5 75
-2 0 -5 -30 -7 -67z"/>
<path d="M1011 606 c-17 -21 -63 -29 -94 -17 -15 6 -27 7 -27 2 0 -30 92 -27
127 4 15 13 23 25 17 25 -6 0 -17 -6 -23 -14z"/>
</g>
</svg>
